umbra-4.ufo
<glyph name="numbersign" format="1">
  <advance width="600"/>
  <unicode hex="0023"/>
  <outline>
    <contour>
      <point x="230" y="-2" type="line"/>
      <point x="230" y="93" type="line"/>
      <point x="353" y="93" type="line"/>
      <point x="367" y="173" type="line"/>
      <point x="280" y="173" type="line"/>
      <point x="280" y="268" type="line"/>
      <point x="384" y="268" type="line"/>
      <point x="405" y="383" type="line"/>
      <point x="510" y="383" type="line"/>
      <point x="489" y="268" type="line"/>
      <point x="569" y="268" type="line"/>
      <point x="590" y="383" type="line"/>
      <point x="695" y="383" type="line"/>
      <point x="674" y="268" type="line"/>
      <point x="780" y="268" type="line"/>
      <point x="780" y="173" type="line"/>
      <point x="657" y="173" type="line"/>
      <point x="643" y="93" type="line"/>
      <point x="730" y="93" type="line"/>
      <point x="730" y="-2" type="line"/>
      <point x="626" y="-2" type="line"/>
      <point x="605" y="-117" type="line"/>
      <point x="500" y="-117" type="line"/>
      <point x="521" y="-2" type="line"/>
      <point x="441" y="-2" type="line"/>
      <point x="420" y="-117" type="line"/>
      <point x="315" y="-117" type="line"/>
      <point x="336" y="-2" type="line"/>
    </contour>
    <contour>
      <point x="538" y="93" type="line"/>
      <point x="552" y="173" type="line"/>
      <point x="472" y="173" type="line"/>
      <point x="458" y="93" type="line"/>
    </contour>
  </outline>
</glyph>
<glyph name="two" format="1">
  <advance width="458"/>
  <unicode hex="0032"/>
  <outline>
    <contour>
      <point x="633" y="226" type="curve" smooth="yes"/>
      <point x="633" y="130"/>
      <point x="520" y="67"/>
      <point x="436" y="5" type="curve"/>
      <point x="630" y="5" type="line"/>
      <point x="630" y="-115" type="line"/>
      <point x="240" y="-115" type="line"/>
      <point x="240" y="35"/>
      <point x="488" y="158"/>
      <point x="488" y="228" type="curve" smooth="yes"/>
      <point x="488" y="249"/>
      <point x="469" y="273"/>
      <point x="421" y="273" type="curve" smooth="yes"/>
      <point x="373" y="273"/>
      <point x="324" y="234"/>
      <point x="284" y="196" type="curve"/>
      <point x="244" y="311" type="line"/>
      <point x="284" y="358"/>
      <point x="344" y="393"/>
      <point x="441" y="393" type="curve" smooth="yes"/>
      <point x="518" y="393"/>
      <point x="633" y="353"/>
    </contour>
  </outline>
</glyph>
<glyph name="three" format="1">
  <advance width="464"/>
  <unicode hex="0033"/>
  <outline>
    <contour>
      <point x="367" y="92" type="line"/>
      <point x="367" y="187" type="line"/>
      <point x="417" y="187" type="line" smooth="yes"/>
      <point x="465" y="187"/>
      <point x="474" y="212"/>
      <point x="474" y="240" type="curve" smooth="yes"/>
      <point x="474" y="263"/>
      <point x="460" y="278"/>
      <point x="432" y="278" type="curve" smooth="yes"/>
      <point x="384" y="278"/>
      <point x="336" y="239"/>
      <point x="296" y="201" type="curve"/>
      <point x="256" y="311" type="line"/>
      <point x="306" y="368"/>
      <point x="366" y="398"/>
      <point x="433" y="398" type="curve" smooth="yes"/>
      <point x="540" y="398"/>
      <point x="625" y="353"/>
      <point x="625" y="256" type="curve" smooth="yes"/>
      <point x="625" y="201"/>
      <point x="599" y="168"/>
      <point x="554" y="150" type="curve"/>
      <point x="608" y="130"/>
      <point x="639" y="91"/>
      <point x="639" y="35" type="curve" smooth="yes"/>
      <point x="639" y="-92"/>
      <point x="514" y="-132"/>
      <point x="437" y="-132" type="curve" smooth="yes"/>
      <point x="340" y="-132"/>
      <point x="270" y="-97"/>
      <point x="230" y="-50" type="curve"/>
      <point x="270" y="65" type="line"/>
      <point x="310" y="27"/>
      <point x="369" y="-7"/>
      <point x="417" y="-7" type="curve" smooth="yes"/>
      <point x="465" y="-7"/>
      <point x="494" y="2"/>
      <point x="494" y="43" type="curve" smooth="yes"/>
      <point x="494" y="81"/>
      <point x="465" y="92"/>
      <point x="417" y="92" type="curve" smooth="yes"/>
    </contour>
  </outline>
</glyph>
<glyph name="eight" format="1">
  <advance width="464"/>
  <unicode hex="0038"/>
  <outline>
    <contour>
      <point x="370" y="35" type="curve" smooth="yes"/>
      <point x="370" y="7"/>
      <point x="394" y="-12"/>
      <point x="442" y="-12" type="curve" smooth="yes"/>
      <point x="490" y="-12"/>
      <point x="514" y="7"/>
      <point x="514" y="35" type="curve" smooth="yes"/>
      <point x="514" y="63"/>
      <point x="490" y="83"/>
      <point x="442" y="83" type="curve" smooth="yes"/>
      <point x="394" y="83"/>
      <point x="370" y="63"/>
    </contour>
    <contour>
      <point x="390" y="237" type="curve" smooth="yes"/>
      <point x="390" y="209"/>
      <point x="414" y="198"/>
      <point x="442" y="198" type="curve" smooth="yes"/>
      <point x="470" y="198"/>
      <point x="494" y="209"/>
      <point x="494" y="237" type="curve" smooth="yes"/>
      <point x="494" y="265"/>
      <point x="470" y="278"/>
      <point x="442" y="278" type="curve" smooth="yes"/>
      <point x="414" y="278"/>
      <point x="390" y="265"/>
    </contour>
    <contour>
      <point x="260" y="247" type="curve" smooth="yes"/>
      <point x="260" y="324"/>
      <point x="325" y="393"/>
      <point x="442" y="393" type="curve" smooth="yes"/>
      <point x="559" y="393"/>
      <point x="624" y="324"/>
      <point x="624" y="247" type="curve" smooth="yes"/>
      <point x="624" y="200"/>
      <point x="599" y="164"/>
      <point x="553" y="143" type="curve"/>
      <point x="609" y="124"/>
      <point x="644" y="87"/>
      <point x="644" y="25" type="curve" smooth="yes"/>
      <point x="644" y="-82"/>
      <point x="559" y="-127"/>
      <point x="442" y="-127" type="curve" smooth="yes"/>
      <point x="325" y="-127"/>
      <point x="240" y="-72"/>
      <point x="240" y="25" type="curve" smooth="yes"/>
      <point x="240" y="88"/>
      <point x="276" y="126"/>
      <point x="334" y="144" type="curve"/>
      <point x="286" y="167"/>
      <point x="260" y="205"/>
    </contour>
  </outline>
</glyph>
<glyph name="nine" format="1">
  <advance width="474"/>
  <unicode hex="0039"/>
  <outline>
    <contour>
      <point x="509" y="221" type="curve" smooth="yes"/>
      <point x="509" y="249"/>
      <point x="490" y="278"/>
      <point x="442" y="278" type="curve" smooth="yes"/>
      <point x="394" y="278"/>
      <point x="375" y="249"/>
      <point x="375" y="221" type="curve" smooth="yes"/>
      <point x="375" y="193"/>
      <point x="394" y="164"/>
      <point x="442" y="164" type="curve" smooth="yes"/>
      <point x="490" y="164"/>
      <point x="509" y="193"/>
    </contour>
    <contour>
      <point x="245" y="221" type="curve" smooth="yes"/>
      <point x="245" y="328"/>
      <point x="320" y="393"/>
      <point x="437" y="393" type="curve" smooth="yes"/>
      <point x="594" y="393"/>
      <point x="649" y="268"/>
      <point x="649" y="151" type="curve" smooth="yes"/>
      <point x="649" y="24"/>
      <point x="573" y="-127"/>
      <point x="436" y="-127" type="curve" smooth="yes"/>
      <point x="359" y="-127"/>
      <point x="289" y="-92"/>
      <point x="249" y="-45" type="curve"/>
      <point x="290" y="61" type="line"/>
      <point x="330" y="23"/>
      <point x="367" y="-7"/>
      <point x="415" y="-7" type="curve" smooth="yes"/>
      <point x="483" y="-7"/>
      <point x="512" y="52"/>
      <point x="518" y="120" type="curve"/>
      <point x="488" y="83"/>
      <point x="442" y="69"/>
      <point x="407" y="69" type="curve" smooth="yes"/>
      <point x="340" y="69"/>
      <point x="245" y="114"/>
    </contour>
  </outline>
</glyph>
<glyph name="at" format="1">
  <advance width="700"/>
  <unicode hex="0040"/>
  <outline>
    <contour>
      <point x="890" y="103" type="curve" smooth="yes"/>
      <point x="890" y="-27"/>
      <point x="843" y="-129"/>
      <point x="716" y="-129" type="curve" smooth="yes"/>
      <point x="669" y="-129"/>
      <point x="624" y="-118"/>
      <point x="609" y="-72" type="curve"/>
      <point x="585" y="-99"/>
      <point x="553" y="-117"/>
      <point x="517" y="-117" type="curve" smooth="yes"/>
      <point x="410" y="-117"/>
      <point x="365" y="-22"/>
      <point x="365" y="65" type="curve" smooth="yes"/>
      <point x="365" y="152"/>
      <point x="420" y="248"/>
      <point x="507" y="248" type="curve" smooth="yes"/>
      <point x="544" y="248"/>
      <point x="577" y="231"/>
      <point x="604" y="205" type="curve"/>
      <point x="604" y="238" type="line"/>
      <point x="739" y="238" type="line"/>
      <point x="739" y="-7" type="line" smooth="yes"/>
      <point x="739" y="-35"/>
      <point x="741" y="-44"/>
      <point x="756" y="-44" type="curve" smooth="yes"/>
      <point x="784" y="-44"/>
      <point x="805" y="23"/>
      <point x="805" y="103" type="curve" smooth="yes"/>
      <point x="805" y="276"/>
      <point x="687" y="333"/>
      <point x="565" y="333" type="curve" smooth="yes"/>
      <point x="453" y="333"/>
      <point x="315" y="246"/>
      <point x="315" y="73" type="curve" smooth="yes"/>
      <point x="315" y="-130"/>
      <point x="443" y="-182"/>
      <point x="595" y="-182" type="curve"/>
      <point x="595" y="-247" type="line"/>
      <point x="370" y="-247"/>
      <point x="230" y="-146"/>
      <point x="230" y="73" type="curve" smooth="yes"/>
      <point x="230" y="262"/>
      <point x="380" y="403"/>
      <point x="565" y="403" type="curve" smooth="yes"/>
      <point x="760" y="403"/>
      <point x="890" y="272"/>
    </contour>
    <contour>
      <point x="604" y="12" type="curve"/>
      <point x="604" y="119" type="line"/>
      <point x="587" y="137"/>
      <point x="563" y="143"/>
      <point x="547" y="143" type="curve" smooth="yes"/>
      <point x="519" y="143"/>
      <point x="500" y="113"/>
      <point x="500" y="65" type="curve" smooth="yes"/>
      <point x="500" y="17"/>
      <point x="519" y="-12"/>
      <point x="547" y="-12" type="curve" smooth="yes"/>
      <point x="563" y="-12"/>
      <point x="587" y="-5"/>
    </contour>
  </outline>
</glyph>
<glyph name="C" format="1">
  <advance width="515"/>
  <unicode hex="0043"/>
  <outline>
    <contour>
      <point x="385" y="133" type="curve" smooth="yes"/>
      <point x="385" y="40"/>
      <point x="458" y="-12"/>
      <point x="515" y="-12" type="curve" smooth="yes"/>
      <point x="576" y="-12"/>
      <point x="620" y="11"/>
      <point x="645" y="44" type="curve"/>
      <point x="685" y="-83" type="line"/>
      <point x="653" y="-115"/>
      <point x="606" y="-137"/>
      <point x="525" y="-137" type="curve" smooth="yes"/>
      <point x="350" y="-137"/>
      <point x="240" y="-16"/>
      <point x="240" y="133" type="curve" smooth="yes"/>
      <point x="240" y="282"/>
      <point x="350" y="403"/>
      <point x="525" y="403" type="curve" smooth="yes"/>
      <point x="606" y="403"/>
      <point x="653" y="381"/>
      <point x="685" y="349" type="curve"/>
      <point x="645" y="222" type="line"/>
      <point x="620" y="255"/>
      <point x="576" y="278"/>
      <point x="515" y="278" type="curve" smooth="yes"/>
      <point x="458" y="278"/>
      <point x="385" y="226"/>
    </contour>
  </outline>
</glyph>
<glyph name="D" format="1">
  <advance width="555"/>
  <unicode hex="0044"/>
  <outline>
    <contour>
      <point x="255" y="-117" type="curve"/>
      <point x="255" y="383" type="line"/>
      <point x="328" y="383"/>
      <point x="402" y="383"/>
      <point x="475" y="383" type="curve" smooth="yes"/>
      <point x="650" y="383"/>
      <point x="735" y="282"/>
      <point x="735" y="133" type="curve" smooth="yes"/>
      <point x="735" y="-16"/>
      <point x="650" y="-117"/>
      <point x="475" y="-117" type="curve" smooth="yes"/>
      <point x="402" y="-117"/>
      <point x="328" y="-117"/>
    </contour>
    <contour>
      <point x="475" y="3" type="line" smooth="yes"/>
      <point x="537" y="3"/>
      <point x="590" y="40"/>
      <point x="590" y="133" type="curve" smooth="yes"/>
      <point x="590" y="226"/>
      <point x="537" y="263"/>
      <point x="475" y="263" type="curve" smooth="yes"/>
      <point x="395" y="263" type="line"/>
      <point x="395" y="3" type="line"/>
    </contour>
  </outline>
</glyph>
<glyph name="H" format="1">
  <advance width="560"/>
  <unicode hex="0048"/>
  <outline>
    <contour>
      <point x="255" y="-117" type="line"/>
      <point x="255" y="383" type="line"/>
      <point x="395" y="383" type="line"/>
      <point x="395" y="193" type="line"/>
      <point x="585" y="193" type="line"/>
      <point x="585" y="383" type="line"/>
      <point x="725" y="383" type="line"/>
      <point x="725" y="-117" type="line"/>
      <point x="585" y="-117" type="line"/>
      <point x="585" y="73" type="line"/>
      <point x="395" y="73" type="line"/>
      <point x="395" y="-117" type="line"/>
    </contour>
  </outline>
</glyph>
<glyph name="J" format="1">
  <advance width="319"/>
  <unicode hex="004A"/>
  <outline>
    <contour>
      <point x="344" y="-107" type="curve" smooth="yes"/>
      <point x="344" y="383" type="line"/>
      <point x="484" y="383" type="line"/>
      <point x="484" y="-147" type="line" smooth="yes"/>
      <point x="484" y="-244"/>
      <point x="394" y="-299"/>
      <point x="317" y="-299" type="curve" smooth="yes"/>
      <point x="250" y="-299"/>
      <point x="210" y="-279"/>
      <point x="160" y="-232" type="curve"/>
      <point x="210" y="-127" type="line"/>
      <point x="250" y="-165"/>
      <point x="279" y="-179"/>
      <point x="297" y="-179" type="curve" smooth="yes"/>
      <point x="325" y="-179"/>
      <point x="344" y="-165"/>
    </contour>
  </outline>
</glyph>
<glyph name="M" format="1">
  <advance width="690"/>
  <unicode hex="004D"/>
  <outline>
    <contour>
      <point x="255" y="-117" type="line"/>
      <point x="255" y="383" type="line"/>
      <point x="395" y="383" type="line"/>
      <point x="555" y="113" type="line"/>
      <point x="715" y="383" type="line"/>
      <point x="855" y="383" type="line"/>
      <point x="855" y="-117" type="line"/>
      <point x="715" y="-117" type="line"/>
      <point x="715" y="143" type="line"/>
      <point x="555" y="-127" type="line"/>
      <point x="395" y="143" type="line"/>
      <point x="395" y="-117" type="line"/>
    </contour>
  </outline>
</glyph>
<glyph name="P" format="1">
  <advance width="487"/>
  <unicode hex="0050"/>
  <outline>
    <contour>
      <point x="255" y="-117" type="line"/>
      <point x="255" y="383" type="line"/>
      <point x="328" y="383"/>
      <point x="402" y="383"/>
      <point x="475" y="383" type="curve" smooth="yes"/>
      <point x="592" y="383"/>
      <point x="677" y="308"/>
      <point x="677" y="201" type="curve" smooth="yes"/>
      <point x="677" y="84"/>
      <point x="592" y="18"/>
      <point x="475" y="18" type="curve" smooth="yes"/>
      <point x="395" y="18" type="line"/>
      <point x="395" y="-117" type="line"/>
    </contour>
    <contour>
      <point x="465" y="268" type="curve" smooth="yes"/>
      <point x="395" y="268" type="line"/>
      <point x="395" y="133" type="line"/>
      <point x="465" y="133" type="line" smooth="yes"/>
      <point x="503" y="133"/>
      <point x="532" y="153"/>
      <point x="532" y="201" type="curve" smooth="yes"/>
      <point x="532" y="249"/>
      <point x="503" y="268"/>
    </contour>
  </outline>
</glyph>
<glyph name="Q" format="1">
  <advance width="610"/>
  <unicode hex="0051"/>
  <outline>
    <contour>
      <point x="240" y="133" type="curve" smooth="yes"/>
      <point x="240" y="282"/>
      <point x="340" y="403"/>
      <point x="515" y="403" type="curve" smooth="yes"/>
      <point x="690" y="403"/>
      <point x="790" y="282"/>
      <point x="790" y="133" type="curve" smooth="yes"/>
      <point x="790" y="17"/>
      <point x="730" y="-82"/>
      <point x="621" y="-120" type="curve"/>
      <point x="775" y="-267" type="line"/>
      <point x="575" y="-267" type="line"/>
      <point x="461" y="-133" type="line"/>
      <point x="320" y="-111"/>
      <point x="240" y="0"/>
    </contour>
    <contour>
      <point x="385" y="133" type="curve" smooth="yes"/>
      <point x="385" y="40"/>
      <point x="453" y="-12"/>
      <point x="515" y="-12" type="curve" smooth="yes"/>
      <point x="577" y="-12"/>
      <point x="645" y="40"/>
      <point x="645" y="133" type="curve" smooth="yes"/>
      <point x="645" y="226"/>
      <point x="577" y="278"/>
      <point x="515" y="278" type="curve" smooth="yes"/>
      <point x="453" y="278"/>
      <point x="385" y="226"/>
    </contour>
  </outline>
</glyph>
<glyph name="T" format="1">
  <advance width="480"/>
  <unicode hex="0054"/>
  <outline>
    <contour>
      <point x="230" y="263" type="line"/>
      <point x="230" y="383" type="line"/>
      <point x="670" y="383" type="line"/>
      <point x="670" y="263" type="line"/>
      <point x="520" y="263" type="line"/>
      <point x="520" y="-117" type="line"/>
      <point x="380" y="-117" type="line"/>
      <point x="380" y="263" type="line"/>
    </contour>
  </outline>
</glyph>
<glyph name="U" format="1">
  <advance width="554"/>
  <unicode hex="0055"/>
  <outline>
    <contour>
      <point x="395" y="105" type="line" smooth="yes"/>
      <point x="395" y="37"/>
      <point x="429" y="-2"/>
      <point x="487" y="-2" type="curve" smooth="yes"/>
      <point x="545" y="-2"/>
      <point x="579" y="37"/>
      <point x="579" y="105" type="curve" smooth="yes"/>
      <point x="579" y="383" type="line"/>
      <point x="719" y="383" type="line"/>
      <point x="719" y="105" type="line" smooth="yes"/>
      <point x="719" y="-42"/>
      <point x="644" y="-127"/>
      <point x="487" y="-127" type="curve" smooth="yes"/>
      <point x="330" y="-127"/>
      <point x="255" y="-32"/>
      <point x="255" y="105" type="curve" smooth="yes"/>
      <point x="255" y="383" type="line"/>
      <point x="395" y="383" type="line"/>
    </contour>
  </outline>
</glyph>
<glyph name="V" format="1">
  <advance width="580"/>
  <unicode hex="0056"/>
  <outline>
    <contour>
      <point x="780" y="383" type="line"/>
      <point x="580" y="-117" type="line"/>
      <point x="420" y="-117" type="line"/>
      <point x="220" y="383" type="line"/>
      <point x="370" y="383" type="line"/>
      <point x="500" y="22" type="line"/>
      <point x="630" y="383" type="line"/>
    </contour>
  </outline>
</glyph>
<glyph name="backslash" format="1">
  <advance width="460"/>
  <unicode hex="005C"/>
  <outline>
    <contour>
      <point x="660" y="-117" type="line"/>
      <point x="530" y="-117" type="line"/>
      <point x="220" y="383" type="line"/>
      <point x="350" y="383" type="line"/>
    </contour>
  </outline>
</glyph>
<glyph name="d" format="1">
  <advance width="499"/>
  <unicode hex="0064"/>
  <outline>
    <contour>
      <point x="669" y="-117" type="line"/>
      <point x="534" y="-117" type="line"/>
      <point x="534" y="-75" type="line"/>
      <point x="503" y="-107"/>
      <point x="462" y="-127"/>
      <point x="417" y="-127" type="curve" smooth="yes"/>
      <point x="310" y="-127"/>
      <point x="245" y="-42"/>
      <point x="245" y="75" type="curve" smooth="yes"/>
      <point x="245" y="192"/>
      <point x="310" y="278"/>
      <point x="417" y="278" type="curve" smooth="yes"/>
      <point x="462" y="278"/>
      <point x="503" y="260"/>
      <point x="534" y="229" type="curve"/>
      <point x="534" y="413" type="line"/>
      <point x="669" y="413" type="line"/>
    </contour>
    <contour>
      <point x="534" y="134" type="line"/>
      <point x="515" y="158"/>
      <point x="486" y="173"/>
      <point x="457" y="173" type="curve" smooth="yes"/>
      <point x="409" y="173"/>
      <point x="380" y="133"/>
      <point x="380" y="75" type="curve" smooth="yes"/>
      <point x="380" y="17"/>
      <point x="409" y="-22"/>
      <point x="457" y="-22" type="curve" smooth="yes"/>
      <point x="486" y="-22"/>
      <point x="515" y="-8"/>
      <point x="534" y="16" type="curve"/>
    </contour>
  </outline>
</glyph>
<glyph name="k" format="1">
  <advance width="485"/>
  <unicode hex="006B"/>
  <outline>
    <contour>
      <point x="250" y="-117" type="line"/>
      <point x="250" y="413" type="line"/>
      <point x="385" y="413" type="line"/>
      <point x="385" y="133" type="line"/>
      <point x="520" y="268" type="line"/>
      <point x="685" y="268" type="line"/>
      <point x="525" y="108" type="line"/>
      <point x="695" y="-117" type="line"/>
      <point x="530" y="-117" type="line"/>
      <point x="385" y="75" type="line"/>
      <point x="385" y="-117" type="line"/>
    </contour>
  </outline>
</glyph>
<glyph name="l" format="1">
  <advance width="215"/>
  <unicode hex="006C"/>
  <outline>
    <contour>
      <point x="250" y="-117" type="line"/>
      <point x="250" y="413" type="line"/>
      <point x="385" y="413" type="line"/>
      <point x="385" y="-117" type="line"/>
    </contour>
  </outline>
</glyph>
<glyph name="p" format="1">
  <advance width="499"/>
  <unicode hex="0070"/>
  <outline>
    <contour>
      <point x="250" y="268" type="line"/>
      <point x="385" y="268" type="line"/>
      <point x="385" y="226" type="line"/>
      <point x="416" y="258"/>
      <point x="457" y="278"/>
      <point x="502" y="278" type="curve" smooth="yes"/>
      <point x="609" y="278"/>
      <point x="674" y="193"/>
      <point x="674" y="76" type="curve" smooth="yes"/>
      <point x="674" y="-41"/>
      <point x="609" y="-127"/>
      <point x="502" y="-127" type="curve" smooth="yes"/>
      <point x="457" y="-127"/>
      <point x="416" y="-109"/>
      <point x="385" y="-78" type="curve"/>
      <point x="385" y="-262" type="line"/>
      <point x="250" y="-262" type="line"/>
    </contour>
    <contour>
      <point x="385" y="17" type="line"/>
      <point x="404" y="-7"/>
      <point x="433" y="-22"/>
      <point x="462" y="-22" type="curve" smooth="yes"/>
      <point x="510" y="-22"/>
      <point x="539" y="18"/>
      <point x="539" y="76" type="curve" smooth="yes"/>
      <point x="539" y="134"/>
      <point x="510" y="173"/>
      <point x="462" y="173" type="curve" smooth="yes"/>
      <point x="433" y="173"/>
      <point x="404" y="159"/>
      <point x="385" y="135" type="curve"/>
    </contour>
  </outline>
</glyph>
<glyph name="s" format="1">
  <advance width="374"/>
  <unicode hex="0073"/>
  <outline>
    <contour>
      <point x="424" y="-5" type="curve" smooth="yes"/>
      <point x="424" y="45"/>
      <point x="256" y="41"/>
      <point x="256" y="161" type="curve" smooth="yes"/>
      <point x="256" y="258"/>
      <point x="331" y="283"/>
      <point x="408" y="283" type="curve" smooth="yes"/>
      <point x="445" y="283"/>
      <point x="495" y="268"/>
      <point x="545" y="221" type="curve"/>
      <point x="505" y="131" type="line"/>
      <point x="465" y="169"/>
      <point x="437" y="183"/>
      <point x="419" y="183" type="curve" smooth="yes"/>
      <point x="401" y="183"/>
      <point x="391" y="174"/>
      <point x="391" y="161" type="curve" smooth="yes"/>
      <point x="391" y="111"/>
      <point x="559" y="109"/>
      <point x="559" y="5" type="curve" smooth="yes"/>
      <point x="559" y="-92"/>
      <point x="474" y="-132"/>
      <point x="397" y="-132" type="curve" smooth="yes"/>
      <point x="330" y="-132"/>
      <point x="280" y="-117"/>
      <point x="230" y="-70" type="curve"/>
      <point x="270" y="20" type="line"/>
      <point x="310" y="-18"/>
      <point x="359" y="-32"/>
      <point x="377" y="-32" type="curve" smooth="yes"/>
      <point x="405" y="-32"/>
      <point x="424" y="-26"/>
    </contour>
  </outline>
</glyph>
<glyph name="t" format="1">
  <advance width="325"/>
  <unicode hex="0074"/>
  <outline>
    <contour>
      <point x="230" y="168" type="line"/>
      <point x="230" y="268" type="line"/>
      <point x="300" y="268" type="line"/>
      <point x="300" y="333" type="line"/>
      <point x="435" y="393" type="line"/>
      <point x="435" y="268" type="line"/>
      <point x="515" y="268" type="line"/>
      <point x="515" y="168" type="line"/>
      <point x="435" y="168" type="line"/>
      <point x="435" y="-117" type="line"/>
      <point x="300" y="-117" type="line"/>
      <point x="300" y="168" type="line"/>
    </contour>
  </outline>
</glyph>
<glyph name="y" format="1">
  <advance width="470"/>
  <unicode hex="0079"/>
  <outline>
    <contour>
      <point x="390" y="-86" type="line"/>
      <point x="220" y="268" type="line"/>
      <point x="375" y="268" type="line"/>
      <point x="449" y="65" type="line"/>
      <point x="530" y="268" type="line"/>
      <point x="670" y="268" type="line"/>
      <point x="450" y="-262" type="line"/>
      <point x="320" y="-262" type="line"/>
    </contour>
  </outline>
</glyph>
<glyph name="quoteright" format="1">
  <advance width="220"/>
  <unicode hex="2019"/>
  <outline>
    <contour>
      <point x="255" y="123" type="line"/>
      <point x="255" y="383" type="line"/>
      <point x="385" y="383" type="line"/>
      <point x="385" y="243" type="line"/>
    </contour>
  </outline>
</glyph>
